<?xml version="1.0" encoding="UTF-8" standalone="no"?>
<!-- Created with Inkscape (http://www.inkscape.org/) -->

<svg
   xmlns:dc="http://purl.org/dc/elements/1.1/"
   xmlns:cc="http://creativecommons.org/ns#"
   xmlns:rdf="http://www.w3.org/1999/02/22-rdf-syntax-ns#"
   xmlns:svg="http://www.w3.org/2000/svg"
   xmlns="http://www.w3.org/2000/svg"
   xmlns:sodipodi="http://sodipodi.sourceforge.net/DTD/sodipodi-0.dtd"
   xmlns:inkscape="http://www.inkscape.org/namespaces/inkscape"
   width="1mm"
   height="1mm"
   viewBox="0 0 1 1"
   version="1.1"
   id="svg8"
   inkscape:version="0.92.5 (2060ec1f9f, 2020-04-08)"
   sodipodi:docname="player3.svg">
  <defs
     id="defs2" />
  <sodipodi:namedview
     id="base"
     pagecolor="#ffffff"
     bordercolor="#666666"
     borderopacity="1.0"
     inkscape:pageopacity="0.0"
     inkscape:pageshadow="2"
     inkscape:zoom="64"
     inkscape:cx="1.4732143"
     inkscape:cy="0.92835578"
     inkscape:document-units="mm"
     inkscape:current-layer="layer1"
     showgrid="false"
     units="mm"
     inkscape:snap-object-midpoints="true"
     inkscape:snap-page="true"
     inkscape:snap-bbox="true"
     inkscape:snap-bbox-midpoints="false"
     inkscape:window-width="1848"
     inkscape:window-height="1016"
     inkscape:window-x="72"
     inkscape:window-y="27"
     inkscape:window-maximized="1" />
  <metadata
     id="metadata5">
    <rdf:RDF>
      <cc:Work
         rdf:about="">
        <dc:format>image/svg+xml</dc:format>
        <dc:type
           rdf:resource="http://purl.org/dc/dcmitype/StillImage" />
        <dc:title></dc:title>
      </cc:Work>
    </rdf:RDF>
  </metadata>
  <g
     inkscape:label="Layer 1"
     inkscape:groupmode="layer"
     id="layer1"
     transform="translate(0,-296.00001)">
    <circle
       style="opacity:1;fill:#ffff00;fill-opacity:1;fill-rule:evenodd;stroke:#808000;stroke-width:0.1;stroke-miterlimit:4;stroke-dasharray:none;stroke-dashoffset:0"
       id="path817"
       cx="0"
       cy="296"
       r="0.49999997" />
    <g
       aria-label="3"
       style="font-style:normal;font-variant:normal;font-weight:normal;font-stretch:normal;font-size:0.82765239px;line-height:1.25;font-family:'Noto Sans';-inkscape-font-specification:'Noto Sans, Normal';font-variant-ligatures:normal;font-variant-caps:normal;font-variant-numeric:normal;font-feature-settings:normal;text-align:start;letter-spacing:0px;word-spacing:0px;writing-mode:lr-tb;text-anchor:start;fill:#808000;stroke-width:0.26458332"
       id="text823">
      <path
         d="m 0.18626326,295.83695 q 0,0.0612 -0.0372444,0.0977 -0.0364167,0.0364 -0.09021411,0.0497 v 0.002 q 0.07117811,0.008 0.10759481,0.043 0.0372444,0.0348 0.0372444,0.0935 0,0.0513 -0.0256572,0.0927 -0.0248296,0.0405 -0.0777993,0.0645 -0.0521421,0.0232 -0.13490734,0.0232 -0.09600768,0 -0.17049639,-0.0323 v -0.10594 q 0.038072,0.019 0.0794546,0.029 0.04221027,0.01 0.07779932,0.01 0.06703984,0 0.09352472,-0.0232 0.02731253,-0.0232 0.02731253,-0.0654 0,-0.0248 -0.01241479,-0.0414 -0.01241478,-0.0174 -0.04386557,-0.0257 -0.03062314,-0.009 -0.08607585,-0.009 h -0.04469323 v -0.096 h 0.04552088 q 0.05462506,0 0.08276524,-0.01 0.02896783,-0.0108 0.03889966,-0.0281 0.01075948,-0.0182 0.01075948,-0.0414 0,-0.0315 -0.01986365,-0.0488 -0.01903601,-0.0182 -0.06455689,-0.0182 -0.04221027,0 -0.07366106,0.0149 -0.03062314,0.0141 -0.0521421,0.0281 l -0.0579357,-0.0861 q 0.0347614,-0.0248 0.0811099,-0.0414 0.04717619,-0.0165 0.11173308,-0.0165 0.09104176,0 0.14401151,0.0372 0.0537974,0.0364 0.0537974,0.10345 z"
         style="font-style:normal;font-variant:normal;font-weight:bold;font-stretch:normal;font-family:'Noto Sans';-inkscape-font-specification:'Noto Sans Bold';text-align:center;text-anchor:middle;fill:#808000;stroke-width:0.26458332"
         id="path1171" />
    </g>
  </g>
</svg>
