<?xml version="1.0" encoding="UTF-8" standalone="no"?>
<!-- Created with Inkscape (http://www.inkscape.org/) -->

<svg
   xmlns:dc="http://purl.org/dc/elements/1.1/"
   xmlns:cc="http://creativecommons.org/ns#"
   xmlns:rdf="http://www.w3.org/1999/02/22-rdf-syntax-ns#"
   xmlns:svg="http://www.w3.org/2000/svg"
   xmlns="http://www.w3.org/2000/svg"
   xmlns:sodipodi="http://sodipodi.sourceforge.net/DTD/sodipodi-0.dtd"
   xmlns:inkscape="http://www.inkscape.org/namespaces/inkscape"
   width="1mm"
   height="1mm"
   viewBox="0 0 1 1"
   version="1.1"
   id="svg8"
   inkscape:version="0.92.5 (2060ec1f9f, 2020-04-08)"
   sodipodi:docname="rocket3.svg">
  <defs
     id="defs2">
    <marker
       inkscape:stockid="Arrow1Lstart"
       orient="auto"
       refY="0.0"
       refX="0.0"
       id="Arrow1Lstart"
       style="overflow:visible"
       inkscape:isstock="true">
      <path
         id="path1403"
         d="M 0.0,0.0 L 5.0,-5.0 L -12.5,0.0 L 5.0,5.0 L 0.0,0.0 z "
         style="fill-rule:evenodd;stroke:#000000;stroke-width:1pt;stroke-opacity:1;fill:#ff0000;fill-opacity:1"
         transform="scale(0.8) translate(12.5,0)" />
    </marker>
  </defs>
  <sodipodi:namedview
     id="base"
     pagecolor="#ffffff"
     bordercolor="#666666"
     borderopacity="1.0"
     inkscape:pageopacity="0.0"
     inkscape:pageshadow="2"
     inkscape:zoom="64"
     inkscape:cx="-1.3392857"
     inkscape:cy="0.94398078"
     inkscape:document-units="mm"
     inkscape:current-layer="layer1"
     showgrid="false"
     units="mm"
     inkscape:snap-object-midpoints="true"
     inkscape:snap-page="true"
     inkscape:snap-bbox="true"
     inkscape:snap-bbox-midpoints="false"
     inkscape:window-width="1848"
     inkscape:window-height="1016"
     inkscape:window-x="72"
     inkscape:window-y="27"
     inkscape:window-maximized="1"
     inkscape:snap-smooth-nodes="true"
     inkscape:snap-midpoints="true" />
  <metadata
     id="metadata5">
    <rdf:RDF>
      <cc:Work
         rdf:about="">
        <dc:format>image/svg+xml</dc:format>
        <dc:type
           rdf:resource="http://purl.org/dc/dcmitype/StillImage" />
        <dc:title></dc:title>
      </cc:Work>
    </rdf:RDF>
  </metadata>
  <g
     inkscape:label="Layer 1"
     inkscape:groupmode="layer"
     id="layer1"
     transform="translate(0,-296.00001)">
    <path
       style="fill:#ffffc1;stroke:none;stroke-width:0.26458332px;stroke-linecap:butt;stroke-linejoin:miter;stroke-opacity:1;fill-opacity:1"
       d="m -0.23380536,295.49977 v 1.00046 L 0.49999997,296 Z"
       id="path1401"
       inkscape:connector-curvature="0" />
    <g
       aria-label="3"
       transform="rotate(90)"
       style="font-style:normal;font-variant:normal;font-weight:normal;font-stretch:normal;font-size:0.54393864px;line-height:1.25;font-family:'Noto Sans';-inkscape-font-specification:'Noto Sans, Normal';font-variant-ligatures:normal;font-variant-caps:normal;font-variant-numeric:normal;font-feature-settings:normal;text-align:start;letter-spacing:0px;word-spacing:0px;writing-mode:lr-tb;text-anchor:start;fill:#e0e000;fill-opacity:1;stroke-width:0.26458332"
       id="text823">
      <path
         d="m 296.12419,-0.14642998 q 0,0.0402515 -0.0245,0.06418476 -0.0239,0.0239333 -0.0593,0.03263632 v 0.0016318 q 0.0468,0.0054394 0.0707,0.02828481 0.0245,0.02284543 0.0245,0.06146507 0,0.03372419 -0.0169,0.06092113 -0.0163,0.026653 -0.0511,0.0424272 -0.0343,0.0152303 -0.0887,0.0152303 -0.0631,0 -0.11206,-0.0212136 V 0.06951366 q 0.025,0.01251059 0.0522,0.01903785 0.0277,0.0065273 0.0511,0.0065273 0.0441,0 0.0615,-0.01523028 0.0179,-0.01523028 0.0179,-0.04297115 0,-0.01631816 -0.008,-0.02719693 -0.008,-0.01142271 -0.0288,-0.0168621 -0.0201,-0.00598332 -0.0566,-0.00598332 h -0.0294 V -0.0762619 h 0.0299 q 0.0359,0 0.0544,-0.0065273 0.019,-0.0070712 0.0256,-0.01849391 0.007,-0.0119666 0.007,-0.0271969 0,-0.0206697 -0.0131,-0.0320924 -0.0125,-0.0119667 -0.0424,-0.0119667 -0.0277,0 -0.0484,0.009791 -0.0201,0.009247 -0.0343,0.0184939 l -0.0381,-0.0565696 q 0.0228,-0.0163182 0.0533,-0.0271969 0.031,-0.0108788 0.0734,-0.0108788 0.0598,0 0.0946,0.0244772 0.0354,0.0239333 0.0354,0.0679923 z"
         style="font-style:normal;font-variant:normal;font-weight:bold;font-stretch:normal;font-family:'Noto Sans';-inkscape-font-specification:'Noto Sans Bold';text-align:center;text-anchor:middle;fill:#e0e000;fill-opacity:1;stroke-width:0.26458332"
         id="path1733" />
    </g>
    <path
       style="fill:none;stroke:#e0e000;stroke-width:0.09999998;stroke-linecap:butt;stroke-linejoin:miter;stroke-miterlimit:8;stroke-dasharray:none;stroke-opacity:1"
       d="m -0.23380536,295.49977 v 0.31419 L -0.96761069,296 l 0.73380533,0.18604 v 0.31419 L 0.49999997,296 Z"
       id="path1375"
       inkscape:connector-curvature="0"
       sodipodi:nodetypes="ccccccc" />
    <path
       style="fill:#ffff00;stroke:none;stroke-width:0.26458332px;stroke-linecap:butt;stroke-linejoin:miter;stroke-opacity:1"
       d="M -0.23380536,295.81396 -0.96761069,296 l 0.73380533,0.18604 z"
       id="path1685"
       inkscape:connector-curvature="0" />
    <path
       style="fill:none;stroke:#808000;stroke-width:0.1;stroke-linecap:butt;stroke-linejoin:miter;stroke-opacity:1;stroke-miterlimit:8;stroke-dasharray:none"
       d="M -0.23380536,295.81396 -0.96761069,296 l 0.73380533,0.18604"
       id="path1687"
       inkscape:connector-curvature="0" />
  </g>
</svg>
